<svg version="1.1" xmlns="http://www.w3.org/2000/svg" xmlns:xlink="http://www.w3.org/1999/xlink" width="512" height="512" viewBox="0,0,256,256"><g fill="#ffffff" fill-rule="nonzero" stroke="none" stroke-width="1" stroke-linecap="butt" stroke-linejoin="miter" stroke-miterlimit="10" stroke-dasharray="" stroke-dashoffset="0" font-family="none" font-weight="none" font-size="none" text-anchor="none" style="mix-blend-mode: normal"><g transform="translate(0,-0.03576) scale(10.66667,10.66667)"><path d="M22.44,10.37c0.37,-0.72 0.56,-1.53 0.56,-2.36c0,-2.56 -1.83,-4.67 -4.19,-4.96c0.1,-0.07 0.2,-0.16 0.29,-0.25c0.63,-0.63 0.83,-1.51 0.89,-2.12c0.04,-0.38 -0.29,-0.71 -0.67,-0.67c-0.61,0.06 -1.49,0.27 -2.12,0.89c-0.18,0.18 -0.33,0.39 -0.45,0.61c-0.47,-0.72 -1,-1.18 -1.11,-1.27c-0.42,-0.35 -1.05,-0.3 -1.41,0.12c-0.36,0.42 -0.31,1.05 0.11,1.41c0.22,0.19 0.69,0.68 0.95,1.25h-0.56c-1,0 -1.95,0.32 -2.75,0.92c-0.63,-0.47 -1.38,-0.79 -2.18,-0.89c0.1,-0.07 0.2,-0.16 0.29,-0.25c0.63,-0.63 0.83,-1.51 0.89,-2.12c0.04,-0.38 -0.29,-0.71 -0.67,-0.67c-0.61,0.06 -1.49,0.27 -2.12,0.89c-0.18,0.18 -0.33,0.39 -0.45,0.61c-0.47,-0.72 -1,-1.18 -1.11,-1.27c-0.42,-0.35 -1.05,-0.3 -1.41,0.12c-0.36,0.42 -0.31,1.05 0.11,1.41c0.22,0.19 0.69,0.68 0.95,1.25h-0.56c-2.59,-0.01 -4.72,2.23 -4.72,4.99c0,0.83 0.2,1.64 0.56,2.36c-0.93,0.51 -1.56,1.5 -1.56,2.63v6c0,2.76 2.24,5 5,5h14c2.76,0 5,-2.24 5,-5v-6c0,-1.13 -0.63,-2.12 -1.56,-2.63zM18.25,5.01c1.52,0 2.75,1.35 2.75,3c0,0.74 -0.25,1.44 -0.7,1.99h-6.7c0.26,-0.62 0.4,-1.3 0.4,-1.99c0,-0.94 -0.25,-1.82 -0.67,-2.57c0.43,-0.28 0.92,-0.43 1.42,-0.43zM5.75,5.01h3.5c1.52,0 2.75,1.35 2.75,3c0,0.74 -0.25,1.45 -0.7,1.99h-7.6c-0.45,-0.55 -0.7,-1.26 -0.7,-1.99c0,-1.65 1.23,-3 2.75,-3zM22,19c0,1.65 -1.35,3 -3,3h-14c-1.3,0 -2.42,-0.84 -2.83,-2h16.83c0.55,0 1,-0.45 1,-1c0,-0.55 -0.45,-1 -1,-1h-17v-2h17c0.55,0 1,-0.45 1,-1c0,-0.55 -0.45,-1 -1,-1h-17v-1c0,-0.55 0.45,-1 1,-1h18c0.55,0 1,0.45 1,1z"></path></g></g></svg>