<svg version="1.1" xmlns="http://www.w3.org/2000/svg" xmlns:xlink="http://www.w3.org/1999/xlink" width="512" height="512" viewBox="0,0,256,256"><g fill="#ffffff" fill-rule="nonzero" stroke="none" stroke-width="1" stroke-linecap="butt" stroke-linejoin="miter" stroke-miterlimit="10" stroke-dasharray="" stroke-dashoffset="0" font-family="none" font-weight="none" font-size="none" text-anchor="none" style="mix-blend-mode: normal"><g transform="scale(10.66667,10.66667)"><path d="M12,16c-2.20914,0 -4,-1.79086 -4,-4c0,-2.20914 1.79086,-4 4,-4c2.20914,0 4,1.79086 4,4c0,2.20914 -1.79086,4 -4,4zM12,10c-1.10457,0 -2,0.89543 -2,2c0,1.10457 0.89543,2 2,2c1.10457,0 2,-0.89543 2,-2c0,-1.10457 -0.89543,-2 -2,-2zM18,23c0,-3.31371 -2.68629,-6 -6,-6c-3.31371,0 -6,2.68629 -6,6c0,0.55228 0.44772,1 1,1c0.55228,0 1,-0.44772 1,-1c0,-2.20914 1.79086,-4 4,-4c2.20914,0 4,1.79086 4,4c0,0.55228 0.44772,1 1,1c0.55228,0 1,-0.44772 1,-1zM18,8c-2.20914,0 -4,-1.79086 -4,-4c0,-2.20914 1.79086,-4 4,-4c2.20914,0 4,1.79086 4,4c0,2.20914 -1.79086,4 -4,4zM18,2c-1.10457,0 -2,0.89543 -2,2c0,1.10457 0.89543,2 2,2c1.10457,0 2,-0.89543 2,-2c0,-1.10457 -0.89543,-2 -2,-2zM24,15c-0.00331,-3.31234 -2.68766,-5.99669 -6,-6c-0.55228,0 -1,0.44772 -1,1c0,0.55228 0.44772,1 1,1c2.20914,0 4,1.79086 4,4c0,0.55228 0.44772,1 1,1c0.55228,0 1,-0.44772 1,-1zM6,8c-2.20914,0 -4,-1.79086 -4,-4c0,-2.20914 1.79086,-4 4,-4c2.20914,0 4,1.79086 4,4c0,2.20914 -1.79086,4 -4,4zM6,2c-1.10457,0 -2,0.89543 -2,2c0,1.10457 0.89543,2 2,2c1.10457,0 2,-0.89543 2,-2c0,-1.10457 -0.89543,-2 -2,-2zM2,15c0,-2.20914 1.79086,-4 4,-4c0.55228,0 1,-0.44772 1,-1c0,-0.55228 -0.44772,-1 -1,-1c-3.31234,0.00331 -5.99669,2.68766 -6,6c0,0.55228 0.44772,1 1,1c0.55228,0 1,-0.44772 1,-1z"></path></g></g></svg>