<svg version="1.1" xmlns="http://www.w3.org/2000/svg" xmlns:xlink="http://www.w3.org/1999/xlink" width="512" height="512" viewBox="0,0,256,256"><g fill="#ffffff" fill-rule="nonzero" stroke="none" stroke-width="1" stroke-linecap="butt" stroke-linejoin="miter" stroke-miterlimit="10" stroke-dasharray="" stroke-dashoffset="0" font-family="none" font-weight="none" font-size="none" text-anchor="none" style="mix-blend-mode: normal"><g transform="scale(10.66667,10.66667)"><path d="M21,12.424v-1.424c0,-4.97056 -4.02944,-9 -9,-9c-4.97056,0 -9,4.02944 -9,9v1.424c-2.16156,0.95179 -3.3623,3.2863 -2.87944,5.59824c0.48286,2.31194 2.51762,3.9707 4.87944,3.97776c1.10457,0 2,-0.89543 2,-2v-6c0,-1.10457 -0.89543,-2 -2,-2v-1c0,-3.86599 3.13401,-7 7,-7c3.86599,0 7,3.13401 7,7v1c-1.10457,0 -2,0.89543 -2,2v6c0,1.10457 0.89543,2 2,2c2.36182,-0.00706 4.39658,-1.66581 4.87944,-3.97776c0.48286,-2.31194 -0.71789,-4.64645 -2.87944,-5.59824zM5,20v0c-1.65685,0 -3,-1.34315 -3,-3c0,-1.65685 1.34315,-3 3,-3zM19,20v-6c1.65685,0 3,1.34315 3,3c0,1.65685 -1.34315,3 -3,3z"></path></g></g></svg>