<svg version="1.1" xmlns="http://www.w3.org/2000/svg" xmlns:xlink="http://www.w3.org/1999/xlink" width="24px" height="24px" viewBox="0,0,256,256"><g fill="#ffffff" fill-rule="nonzero" stroke="none" stroke-width="1" stroke-linecap="butt" stroke-linejoin="miter" stroke-miterlimit="10" stroke-dasharray="" stroke-dashoffset="0" font-family="none" font-weight="none" font-size="none" text-anchor="none" style="mix-blend-mode: normal"><g transform="translate(-0.00004,-0.00004)"><g><g transform="scale(10.66667,10.66667)"><path d="M19,2h-1v-1c0,-0.55228 -0.44772,-1 -1,-1c-0.55228,0 -1,0.44772 -1,1v1h-8v-1c0,-0.55228 -0.44772,-1 -1,-1c-0.55228,0 -1,0.44772 -1,1v1h-1c-2.76005,0.00331 -4.99669,2.23995 -5,5v12c0.00331,2.76005 2.23995,4.99669 5,5h14c2.76005,-0.00331 4.99669,-2.23995 5,-5v-12c-0.00331,-2.76005 -2.23995,-4.99669 -5,-5zM2,7c0,-1.65685 1.34315,-3 3,-3h14c1.65685,0 3,1.34315 3,3v1h-20zM19,22h-14c-1.65685,0 -3,-1.34315 -3,-3v-9h20v9c0,1.65685 -1.34315,3 -3,3z"></path><circle cx="12" cy="15" r="1.5"></circle><circle cx="7" cy="15" r="1.5"></circle><circle cx="17" cy="15" r="1.5"></circle></g></g></g></g></svg>