<svg version="1.1" xmlns="http://www.w3.org/2000/svg" xmlns:xlink="http://www.w3.org/1999/xlink" width="512" height="512" viewBox="0,0,256,256"><g fill="#ffffff" fill-rule="nonzero" stroke="none" stroke-width="1" stroke-linecap="butt" stroke-linejoin="miter" stroke-miterlimit="10" stroke-dasharray="" stroke-dashoffset="0" font-family="none" font-weight="none" font-size="none" text-anchor="none" style="mix-blend-mode: normal"><g transform="translate(0,0.0103) scale(10.66667,10.66667)"><path d="M12,6c-2.20914,0 -4,1.79086 -4,4c0,2.20914 1.79086,4 4,4c2.20914,0 4,-1.79086 4,-4c0,-2.20914 -1.79086,-4 -4,-4zM12,12c-1.10457,0 -2,-0.89543 -2,-2c0,-1.10457 0.89543,-2 2,-2c1.10457,0 2,0.89543 2,2c0,1.10457 -0.89543,2 -2,2z"></path><path d="M12,24c-1.70864,0.00875 -3.31552,-0.81128 -4.311,-2.2c-3.811,-5.257 -5.744,-9.209 -5.744,-11.747c0,-5.55322 4.50178,-10.055 10.055,-10.055c5.55322,0 10.055,4.50178 10.055,10.055c0,2.538 -1.933,6.49 -5.744,11.747c-0.99548,1.38872 -2.60236,2.20875 -4.311,2.2zM12,2.181c-4.34663,0.00496 -7.86904,3.52737 -7.874,7.874c0,2.01 1.893,5.727 5.329,10.466c0.59168,0.81498 1.53788,1.2973 2.545,1.2973c1.00712,0 1.95332,-0.48232 2.545,-1.2973c3.436,-4.739 5.329,-8.456 5.329,-10.466c-0.00496,-4.34663 -3.52737,-7.86904 -7.874,-7.874z"></path></g></g></svg>