<svg version="1.1" xmlns="http://www.w3.org/2000/svg" xmlns:xlink="http://www.w3.org/1999/xlink" width="512" height="512" viewBox="0,0,256,256"><g fill="#ffffff" fill-rule="nonzero" stroke="none" stroke-width="1" stroke-linecap="butt" stroke-linejoin="miter" stroke-miterlimit="10" stroke-dasharray="" stroke-dashoffset="0" font-family="none" font-weight="none" font-size="none" text-anchor="none" style="mix-blend-mode: normal"><g transform="scale(10.66667,10.66667)"><path d="M19,1h-14c-2.76005,0.00331 -4.99669,2.23995 -5,5v12c0.00331,2.76005 2.23995,4.99669 5,5h14c2.76005,-0.00331 4.99669,-2.23995 5,-5v-12c-0.00331,-2.76005 -2.23995,-4.99669 -5,-5zM5,3h14c1.22502,0.00241 2.32552,0.7494 2.78,1.887l-7.658,7.659c-1.17332,1.16862 -3.07068,1.16862 -4.244,0l-7.658,-7.659c0.45448,-1.1376 1.55498,-1.88459 2.78,-1.887zM19,21h-14c-1.65685,0 -3,-1.34315 -3,-3v-10.5l6.464,6.46c1.95433,1.94938 5.11767,1.94938 7.072,0l6.464,-6.46v10.5c0,1.65685 -1.34315,3 -3,3z"></path></g></g></svg>